<?xml version="1.0" encoding="utf-8"?>
<!-- Generator: Adobe Illustrator 24.1.0, SVG Export Plug-In . SVG Version: 6.00 Build 0)  -->
<svg version="1.1" id="Capa_1" xmlns="http://www.w3.org/2000/svg" xmlns:xlink="http://www.w3.org/1999/xlink" x="0px" y="0px"
	 viewBox="0 0 201.5 201.5" style="enable-background:new 0 0 201.5 201.5;" xml:space="preserve">
<style type="text/css">
	.st0{fill:#FFFFFF;}
	.st1{fill:#161615;}
</style>
<path class="st0" d="M177.2,201.5h-153C10.9,201.5,0,190.6,0,177.2v-153C0,10.9,10.9,0,24.3,0h153c13.4,0,24.3,10.9,24.3,24.3v153
	C201.5,190.6,190.6,201.5,177.2,201.5z"/>
<path id="Trazado_312" class="st1" d="M125.6,163.3c-0.6-9.9,2.3-19.7,8.1-27.7c0.1-0.2,0.1-0.4-0.1-0.5c-0.1-0.1-0.2-0.1-0.3-0.1
	c-22.1,5.7-30.7,34.9-49.3,25.7c-12.9-6.4-19.7-15.2-21.9-29.9C59.9,116,73.3,77.1,127,86.6c0,0,0,0,0,0c0,0,0,0,0,0
	c-18.9-9.6-36.7-9.6-51.6-3.8c-6.9-5.9-8.4-14.9-6.7-22.3C74,40.5,92.1,45.6,104,52.1c9.2,5,23.6,0.1,22.9-3.7c0,0,0,0,0,0
	c-5.5-1.8-9.8-6.1-11.8-11.5c-2.6-6.8-8.4-11-11.2-11.7c0.5-3.4,4.2-9.6,8.8-12.4c0.1-0.1,0.2-0.2,0.1-0.4c-0.1-0.1-0.2-0.1-0.3-0.1
	c-7.5,1-14.4,4.3-19.9,9.4c0,0-2.3-0.2-3.1-0.3c0.8-5.3,4.7-10,7.6-12.3c0.1-0.1,0.1-0.3,0-0.4c-0.1-0.1-0.2-0.1-0.3-0.1
	C90.6,9.9,80.9,15.6,76,23c-25.3,7.7-37.3,43.3-11.6,65.3c-22.4,14.5-34.5,42.9-26.1,65.3c19.4,51.7,73.9,42.4,92.8,28.2
	c19.7-14.8,9.8-37.2,34.5-55.6c0.2-0.1,0.2-0.4,0.1-0.5c-0.1-0.1-0.2-0.2-0.3-0.2C151.7,125.7,128,139.4,125.6,163.3
	C125.7,163.3,125.6,163.3,125.6,163.3C125.6,163.3,125.6,163.3,125.6,163.3z"/>
</svg>
