<svg xmlns="http://www.w3.org/2000/svg" viewBox="0 0 300.05 184.72"><defs><style>.cls-1{fill:#5f5f5f;}.cls-2{fill:#fff;}.cls-3{fill:#e6e6e6;}.cls-4{fill:#1f1d22;}.cls-17,.cls-18,.cls-19,.cls-5,.cls-7,.cls-8{fill:none;stroke-miterlimit:10;}.cls-5{stroke:#fff;}.cls-6{fill:#bf0404;}.cls-7,.cls-8{stroke:#b3b3b3;}.cls-8{stroke-dasharray:6.81 6.81;}.cls-9{fill:#8a0303;}.cls-10{fill:#eb4334;}.cls-11{fill:#ffc69a;}.cls-12{fill:#daa184;}.cls-13{fill:#411809;}.cls-14{fill:#2a272e;}.cls-15{fill:#ffb780;}.cls-16{opacity:0.1;}.cls-17,.cls-18,.cls-19{stroke:#1f1d22;}.cls-17,.cls-18{stroke-linecap:round;}.cls-17{stroke-width:2px;}</style></defs><g id="Capa_2" data-name="Capa 2"><g id="OBJECTS"><path class="cls-1" d="M41.27,19.55C75.93-8.14,120.8,1.56,122.67,2c28.35,6.59,27.08,21.37,58,32.46,45.13,16.18,68.84-7.76,94.71,10.64,20.22,14.38,28.7,45.34,22.88,68.63-10.76,43.1-72.44,68.13-119.18,62.26-44.63-5.61-56.39-37-105.88-36.18-32,.51-42.93,13.88-55.34,5.32C-6,128.67-2.15,54.22,41.27,19.55Z"/><rect class="cls-2" x="49.36" y="28.48" width="203.92" height="137.83" rx="9.6"/><path class="cls-3" d="M245.42,29H58.53c-4.87-.19-8.89,3.14-8.74,8.76v3l203.08-.19V37.1C252.87,32.78,249.47,29,245.42,29Z"/><rect class="cls-4" x="66.08" y="102.45" width="71.86" height="25.45" rx="2.33"/><path class="cls-2" d="M87.41,115.54a6.91,6.91,0,1,1-6.91-6.91A6.91,6.91,0,0,1,87.41,115.54Z"/><line class="cls-5" x1="93.22" y1="116.27" x2="129.58" y2="116.27"/><line class="cls-5" x1="93.22" y1="111.56" x2="110.64" y2="111.56"/><line class="cls-5" x1="93.22" y1="120.63" x2="129.58" y2="120.63"/><path class="cls-6" d="M241.88,55.75V52.28a4,4,0,0,0-4-4H162.27a4,4,0,0,0-4,4v33.9Z"/><rect class="cls-6" x="179.38" y="50.63" width="15.26" height="32.33" transform="translate(-11.43 74.17) rotate(-21.78)"/><rect class="cls-7" x="158.31" y="48.32" width="83.57" height="97.31" rx="5.23"/><rect class="cls-6" x="174.19" y="61.61" width="15.26" height="32.33" transform="translate(-15.88 73.02) rotate(-21.78)"/><rect class="cls-6" x="166.17" y="73.63" width="15.26" height="15.26" transform="translate(-17.75 70.3) rotate(-21.78)"/><rect class="cls-6" x="221.68" y="54.68" width="15.26" height="21.72" transform="translate(-7.95 89.78) rotate(-21.78)"/><rect class="cls-3" x="66.32" y="48.32" width="71.62" height="10.4"/><rect class="cls-3" x="66.32" y="134.44" width="71.62" height="4.01"/><rect class="cls-3" x="66.32" y="141.92" width="71.62" height="4.01"/><rect class="cls-8" x="66.08" y="70.46" width="71.86" height="25.45" rx="2.33"/><circle class="cls-9" cx="234.92" cy="35.38" r="1.66"/><circle class="cls-10" cx="240.47" cy="35.38" r="1.66"/><circle class="cls-4" cx="246.03" cy="35.38" r="1.66"/><path class="cls-2" d="M225.85,38.12H58a3.27,3.27,0,0,1-3.27-3.27h0A3.28,3.28,0,0,1,58,31.58H225.85a3.27,3.27,0,0,1,3.27,3.27h0A3.26,3.26,0,0,1,225.85,38.12Z"/><rect class="cls-7" x="49.36" y="28.48" width="203.92" height="137.83" rx="9.6"/><rect class="cls-4" x="39.18" y="70.46" width="71.86" height="25.45" rx="2.33"/><path class="cls-2" d="M60.51,83.55a6.91,6.91,0,1,1-6.91-6.91A6.91,6.91,0,0,1,60.51,83.55Z"/><line class="cls-5" x1="66.32" y1="84.28" x2="102.68" y2="84.28"/><line class="cls-5" x1="66.32" y1="79.57" x2="83.74" y2="79.57"/><line class="cls-5" x1="66.32" y1="88.64" x2="102.68" y2="88.64"/><path class="cls-9" d="M31.56,176.67a42.25,42.25,0,0,1,6.72,2.51c1.77,1,2,1.8-.2,1.81a63.37,63.37,0,0,1-8.12-.37c-1.35-.21-.79-3.38-.56-3.92Z"/><polygon class="cls-11" points="31.17 176.67 31.62 174.92 29.29 175.19 29.4 176.7 31.17 176.67"/><path class="cls-4" d="M39.64,180.57a83.23,83.23,0,0,1-8.87-.61,3.82,3.82,0,0,1-1.67-.85c0,.76.27,1.42.86,1.51a63.37,63.37,0,0,0,8.12.37C39,181,39.52,180.83,39.64,180.57Z"/><path class="cls-12" d="M20.89,115.55s-.56-2.65,4.16-6.18a71.93,71.93,0,0,0,7.28-6.09l4.47-15.5,1.56.73s.09,12.17-.59,15.78S22.12,123.56,20.89,115.55Z"/><path class="cls-9" d="M33.16,99.46l5.08.73-.19,4.25S30.63,116,25.79,117.86s-7.74-1-6.55-3S31.53,103.4,31.53,103.4Z"/><rect class="cls-6" x="34.28" y="96.54" width="2.54" height="6.09" transform="translate(139.46 80) rotate(98.97)"/><path class="cls-12" d="M38.35,92s-2.93-7.18-2.07-8c0,0,2.74,4.63,3.57,6.58"/><path class="cls-6" d="M3.72,172.27a41.79,41.79,0,0,1,4.41,5.65c1,1.77.75,2.58-1.12,1.44A62.21,62.21,0,0,1,.28,174.8c-1-.89,1.1-3.3,1.58-3.64Z"/><polygon class="cls-11" points="3.38 172.06 4.69 170.81 2.55 169.82 1.86 171.16 3.38 172.06"/><path class="cls-4" d="M30.08,133.64l-9.25-5.16s1.55,19.52,7.46,28.14c0,0,.05,15.7,1.08,19.09l2.16-.05s3.31-17.87,3-20.71C34,149.71,33.42,142.17,30.08,133.64Z"/><path class="cls-13" d="M20.27,97.7s-3.7,1.82-4,8.63-1.48,7.07-1.48,7.07a11.59,11.59,0,0,0,10.62,0Z"/><path class="cls-11" d="M24.74,98.34A8.07,8.07,0,0,1,27,104c.08,2.27-3.39,2.57-5.35,1.47a5.18,5.18,0,0,1-2.66-5C19.45,98,22.76,96.52,24.74,98.34Z"/><path class="cls-11" d="M22.72,101.11l-3.65.57,1.37,8.82a2.32,2.32,0,0,0,2.64,1.94h0A2.33,2.33,0,0,0,25,109.55Z"/><path class="cls-13" d="M23.11,97.88s.9,4.93-4,6.14c-3.45.85-3.35-7.74,1.52-7.92,6.84-.25,5.3,3.69,5.3,3.69S24.24,97.38,23.11,97.88Z"/><polygon class="cls-12" points="24.23 106.78 21.45 105.56 24.04 106.03 24.23 106.78"/><path class="cls-4" d="M28.34,129.6l-11.27,3s-3.17,4.3-2,21c0,0-9.84,8.27-12.59,16.33l1.83,1.19s13.85-12.38,15.8-14.48C22.44,154.16,27,145.77,28.34,129.6Z"/><path class="cls-6" d="M27.14,110.41a3,3,0,0,0-1.92-2.18c-2.09-.77-7.17-.81-7.21,6-.1,13.5-.94,18.31-.94,18.31s2.7,2.36,13,1l-1.36-8.52,1.21-2.62a8.45,8.45,0,0,0-.22-6.4Z"/><path class="cls-11" d="M23,116.1s-.57-2.66,4.16-6.19a72.37,72.37,0,0,0,7.27-6.09l4.47-15.5,1.56.74s.1,12.16-.59,15.77S24.18,124.1,23,116.1Z"/><path class="cls-11" d="M38.51,89.77s-1-4.37-.17-5.2c0,0,.84,1.82,1.67,3.77.26.61,2.91,2.52,1.54,2.32A16.63,16.63,0,0,1,38.51,89.77Z"/><path class="cls-11" d="M25.42,99.18a5.77,5.77,0,0,0,2,1.39,2,2,0,0,1-.86,1.19Z"/><path class="cls-4" d="M8.56,179.82a83.3,83.3,0,0,1-7.24-5.16,3.76,3.76,0,0,1-1-1.61c-.36.68-.51,1.36-.06,1.75A62.21,62.21,0,0,0,7,179.36C7.82,179.85,8.32,180,8.56,179.82Z"/><path class="cls-11" d="M2,171.26s2.46,4.26,3.55,3.16l-1.82-2.73Z"/><path class="cls-11" d="M29.66,176.63s4.32,2.42,4.62.9l-3-1.27Z"/><path class="cls-6" d="M35.6,99.65l4.63.85L40,105.85s-6.89,10.37-11.73,12.2-7.73-1-6.55-3S34,103.59,34,103.59Z"/><rect class="cls-6" x="36.71" y="96.73" width="2.54" height="6.09" transform="translate(142.46 77.82) rotate(98.97)"/><path class="cls-4" d="M30.08,133.64l1.21,3.41-7.79,8.58L24.23,134A39,39,0,0,0,30.08,133.64Z"/><path class="cls-14" d="M21,152.37c-1.58,1.63-2.09,2.37-2.31,3.33-.18.79,0,.89-.21,1.37-.59,1.29-2.29,1-4.36,2-1.51.69-2.5,1.8-4.49,4-1,1.1-.9,1.17-2.52,3.2-1.93,2.42-3.09,3.64-3.64,4.39l.79.51s13.85-12.38,15.8-14.48a23.56,23.56,0,0,0,4-7.11C23.81,149.52,22.88,150.48,21,152.37Z"/><rect class="cls-4" x="28.55" y="174.37" width="3.63" height="1.43" transform="translate(60.74 350.18) rotate(180)"/><rect class="cls-4" x="1.58" y="169.61" width="3.63" height="1.43" transform="translate(-78.82 319.54) rotate(-150)"/><path class="cls-6" d="M16.12,103.2l8.31-6.57a5.3,5.3,0,1,0-8.31,6.57"/><path class="cls-9" d="M18.78,94.83a5.45,5.45,0,0,0-1.79.92,5.31,5.31,0,0,0-.87,7.45l2.16-1.71A5.3,5.3,0,0,1,18.78,94.83Z"/><rect class="cls-9" x="14.81" y="98.62" width="12.29" height="1.51" transform="translate(-55.26 32.25) rotate(-36.72)"/><path class="cls-4" d="M29.93,122.5a8.47,8.47,0,0,0,.13-5.47,12.13,12.13,0,0,1-7.86.3c-1.7-6.1,1-8.82,1.66-9.41a5.93,5.93,0,0,0-2.15.16c-1.06,1.53-2.16,4.27-1.24,8.57A10.56,10.56,0,0,1,18,115h0c-.12,12.92-1.26,18.15-1.26,18.15s3,1.77,13.34.46l-1.36-8.52Z"/><path class="cls-14" d="M34.53,155c-.56-5.24-1.11-12.78-4.45-21.31l-1.36-8.52,1.21-2.62a8.47,8.47,0,0,0,.13-5.47,13.06,13.06,0,0,1-1.57.46,10.17,10.17,0,0,1-.77,5.58,9.52,9.52,0,0,0-1.09,3,9.18,9.18,0,0,0,.27,3.81c1.17,4.52,2.32,7.77,2.32,7.77,1.61,4.54,2.41,6.8,2.45,7.9.16,4.13-1.73,6.45-.13,8.59.76,1,1.84,1.34,1.9,2.45s-.86,1.41-1.5,2.72c-.86,1.8-.09,3.1,0,5.73s-.63,3-1,5.86a24.54,24.54,0,0,0,0,4.77h.56S34.84,157.79,34.53,155Z"/><polygon class="cls-10" points="89.82 178.76 72 178.76 77.81 149.4 84.02 149.4 89.82 178.76"/><rect class="cls-10" x="67.79" y="177.3" width="25.43" height="3.04"/><polygon class="cls-10" points="89.82 178.76 72 178.76 77.81 149.4 84.02 149.4 89.82 178.76"/><polygon class="cls-2" points="75.35 161.84 86.48 161.84 85.57 157.24 76.26 157.24 75.35 161.84"/><polygon class="cls-2" points="73.22 172.6 88.6 172.6 87.69 168 74.13 168 73.22 172.6"/><path class="cls-4" d="M281,174.39s-7,3.84-9.27,3.87-.6,1,1.9,1.24a38.07,38.07,0,0,0,8.26-.82c.18,0,.73-.6.73-.6l.16.54a7.25,7.25,0,0,0,1.2-.09,25.46,25.46,0,0,0-.5-4.15Z"/><polygon class="cls-15" points="280.95 174.39 281.04 172.53 283.52 172.65 283.43 174.38 280.95 174.39"/><path class="cls-4" d="M280.87,118.5l8.26,1.41S286.61,142,284,150.59c0,0,1.71,14.79-.12,22.79l-3.27.15s-2.79-18.91-3.55-22.1C276.16,147.6,277.28,138.34,280.87,118.5Z"/><polygon class="cls-4" points="279.89 171.67 280.13 173.81 284.23 173.72 284.45 171.79 279.89 171.67"/><path class="cls-4" d="M290.7,175.15s-7,3.84-9.27,3.86-.6,1,1.9,1.25a38.81,38.81,0,0,0,8.26-.83c.17,0,.73-.6.73-.6l.16.55a7,7,0,0,0,1.19-.1,24.64,24.64,0,0,0-.49-4.15Z"/><polygon class="cls-15" points="290.7 175.15 290.79 173.28 293.27 173.41 293.18 175.13 290.7 175.15"/><path class="cls-4" d="M284.88,119.8l8.75,6.82s2.88,4.26-1.52,24.21a49.34,49.34,0,0,1,1.38,23.26l-3.24.49s-3.92-20.34-5-23.44C284,147.42,282.92,137.09,284.88,119.8Z"/><polygon class="cls-4" points="289.43 172.6 289.85 174.72 293.93 174.29 293.99 172.36 289.43 172.6"/><polygon class="cls-4" points="284.24 126.49 279.48 126.36 278.72 130.93 285.61 142.74 284.24 126.49"/><path class="cls-6" d="M289.3,101.89s-3.24-2.93-7.2,3a76.42,76.42,0,0,1-6.55,8.68l-15-8.29-1.56,3.2s13.54,15.49,17.84,14.45S299,102.88,289.3,101.89Z"/><path class="cls-15" d="M259,108.56s-7.28-5.61-3.81-4.62c1.58.45,3,1.64,3.51,1.15s-.61-.93-.81-2,3.25,2.66,3.25,2.66Z"/><g class="cls-16"><polygon points="264.12 110.09 270.36 115.92 263.3 112.61 264.12 110.09"/></g><g class="cls-16"><polygon points="275.06 119.22 282.58 112.41 282.58 114.21 278.82 120.23 275.06 119.22"/></g><polygon class="cls-6" points="258.11 108.45 259.65 109.62 262.53 106.11 260.98 104.94 258.11 108.45"/><path class="cls-6" d="M286.17,99.52c2.51-.92,9.63-1.52,10.73,4.56,1,5.55-1.12,10.38-1.95,14.32a67.9,67.9,0,0,0-.91,7s-4.66,5.51-13.33,3l.56-9.43.59-5.22c-.48-5.93-.34-6.66.72-9.64.44-1.25,2.06-3.93,3.24-4.52Z"/><path class="cls-4" d="M282.34,109.21l-.74-.55c0-3.8,1.56-9,7.66-9.5h.2C281.6,100.68,282.34,109.12,282.34,109.21Z"/><path class="cls-15" d="M288.41,89.67l4.51,0-.54,9.41a1,1,0,0,1-.34.78,3.74,3.74,0,0,1-3.42.68c-1.52-.36-.41-1.06-.19-2.77Z"/><path class="cls-15" d="M287.84,87.55a10.63,10.63,0,0,0-2.37,7.68c.09,3.19,4.34,3.23,7,1.55A6.38,6.38,0,0,0,295.44,90C294.67,86.58,290.2,84.58,287.84,87.55Z"/><g class="cls-16"><polygon points="288.21 98.68 290.78 97.64 288.41 97.88 288.21 98.68"/></g><path class="cls-15" d="M286.39,90.58a11.86,11.86,0,0,0-1.85,2,2.21,2.21,0,0,0,1.2,1.08Z"/><path class="cls-13" d="M295.92,89.46c-.17-4.35-7.72-4.3-8.63-3.59a1.91,1.91,0,0,0-.34,2.92l.37-.28.21-.09c1.11.16,5,1,3.81,4-.3.78.37,1.13,1.16,1.17a13.17,13.17,0,0,1-.09,2.93C292.3,97.26,296.19,96.52,295.92,89.46Z"/><path class="cls-4" d="M256,97.36h1a0,0,0,0,1,0,0v20.53a0,0,0,0,1,0,0H255.4a0,0,0,0,1,0,0V98A.62.62,0,0,1,256,97.36Z" transform="translate(5.81 228.16) rotate(-48.49)"/><path class="cls-2" d="M263.78,109.43a2,2,0,0,1,.68,1.54l0,2.86-15.38-13.61,4.44.69a2.79,2.79,0,0,1,1.39.65Z"/><path class="cls-15" d="M289.94,94.21c.35.53,1.24.55,2,.05s1.08-1.33.74-1.86a1.47,1.47,0,0,0-2,0C289.92,92.86,289.59,93.69,289.94,94.21Z"/><path class="cls-4" d="M294.09,127.87a85.89,85.89,0,0,1,.86-9.47c.34-1.58.87-3.3,1.33-5.15a40.86,40.86,0,0,1-14.67-4.73,51.08,51.08,0,0,0,.25,5.31L280.71,119l-1.6,9.56A22,22,0,0,0,294.09,127.87Z"/><path class="cls-4" d="M291.32,133.92l-2.93-.79c3.77-13.91,5.61-26.92,4-28.42-1.05-.93-1.72-.89-2.14-.77-2.21.61-4.34,5.43-5,7.67l-2.29-.89c.26-.86,2.11-8.48,6.51-9.7a5.15,5.15,0,0,1,5,1.44C298.36,106,293.56,125.64,291.32,133.92Z"/><path class="cls-6" d="M290.53,102.92s-3,0-6.15,6.34-4.87,8-4.87,8l-15.08-6.65-2.62,3.4s16.13,13.76,19.89,11.43C288.72,121.12,300.29,102.7,290.53,102.92Z"/><path class="cls-15" d="M261.81,114s-3.45.29-4.26-1.76c-.52-1.3-2.36-4.2-.54-2.86,1.14.84,2.7,2.41,3.17,1.75s-1.93-.89-1.32-2.15l4.05,2.27Z"/><polygon class="cls-6" points="260.62 114.9 262.33 115.8 265.2 110.72 263.49 109.82 260.62 114.9"/><path class="cls-6" d="M296.44,90.89,287,86.09a5.3,5.3,0,1,1,9.44,4.8"/><path class="cls-9" d="M292.19,83.22a5.29,5.29,0,0,1,4.25,7.67L294,89.64A5.29,5.29,0,0,0,292.19,83.22Z"/><rect class="cls-9" x="290.19" y="81.96" width="1.51" height="12.29" transform="translate(86.72 313.27) rotate(-64.64)"/><polygon class="cls-10" points="271.22 178.76 253.4 178.76 259.2 149.4 265.42 149.4 271.22 178.76"/><rect class="cls-10" x="249.18" y="177.3" width="25.43" height="3.04"/><polygon class="cls-10" points="271.22 178.76 253.4 178.76 259.2 149.4 265.42 149.4 271.22 178.76"/><polygon class="cls-2" points="256.74 161.84 267.87 161.84 266.96 157.24 257.65 157.24 256.74 161.84"/><polygon class="cls-2" points="254.62 172.6 270 172.6 269.09 168 255.53 168 254.62 172.6"/><path class="cls-4" d="M138,184.72a.78.78,0,0,0,.76-.62l13.48-65.78a.78.78,0,0,0-.6-.92.79.79,0,0,0-.92.61l-13.48,65.78a.78.78,0,0,0,.6.92Z"/><path class="cls-14" d="M150.83,124.65h19.46a.78.78,0,0,0,0-1.55H150.83a.78.78,0,1,0,0,1.55Z"/><path class="cls-14" d="M148.93,133.11h19.46a.77.77,0,0,0,.78-.77.78.78,0,0,0-.78-.78H148.93a.77.77,0,0,0-.77.78A.76.76,0,0,0,148.93,133.11Z"/><path class="cls-14" d="M147.3,141.57h19.46a.76.76,0,0,0,.77-.77.77.77,0,0,0-.77-.78H147.3a.78.78,0,0,0-.78.78A.77.77,0,0,0,147.3,141.57Z"/><path class="cls-14" d="M145.54,150H165a.78.78,0,0,0,0-1.56H145.54a.78.78,0,1,0,0,1.56Z"/><path class="cls-14" d="M143.88,158.5h19.45a.78.78,0,0,0,0-1.56H143.88a.78.78,0,0,0,0,1.56Z"/><path class="cls-14" d="M142.23,167h19.45a.78.78,0,0,0,.78-.78.77.77,0,0,0-.78-.77H142.23a.77.77,0,0,0-.78.77A.78.78,0,0,0,142.23,167Z"/><path class="cls-14" d="M140.55,175.42H160a.78.78,0,1,0,0-1.55H140.55a.78.78,0,1,0,0,1.55Z"/><path class="cls-4" d="M158.8,184.72a.77.77,0,0,0,.76-.62l13.49-65.78a.79.79,0,0,0-.61-.92.78.78,0,0,0-.91.61L158,183.79a.79.79,0,0,0,.61.92Z"/><line class="cls-17" x1="222.92" y1="76.1" x2="226.9" y2="86.23"/><polyline class="cls-18" points="212.43 73.67 213.74 75.94 222.75 75.63 229.36 69.74 228.37 66.42"/><line class="cls-18" x1="229.12" y1="65.8" x2="211.57" y2="73.56"/><path class="cls-9" d="M226.68,70.38l-10.27,4.31a2.93,2.93,0,0,1-3.82-1.57h0a2.93,2.93,0,0,1,1.56-3.82L224.42,65a2.93,2.93,0,0,1,3.82,1.56h0A2.93,2.93,0,0,1,226.68,70.38Z"/><path class="cls-6" d="M215.83,73.54l10.26-4.3a2.93,2.93,0,0,0,1.69-3.41,2.92,2.92,0,0,0-3.36-.83l-10.27,4.3a2.93,2.93,0,0,0-1.69,3.4A2.92,2.92,0,0,0,215.83,73.54Z"/><polygon class="cls-4" points="213.57 167.63 200.25 167.63 197.79 149.4 216.03 149.4 213.57 167.63"/><path class="cls-19" d="M199,149.85a7.92,7.92,0,0,1,15.84,0"/><path class="cls-6" d="M212.31,150a.68.68,0,0,0,.1-.59h-11c-.21,1.24.3,2.6.75,2.66s.93-1.85,1.61-1.81,1.35,1.34.81,4.45c-.49,2.74,1.18,3.32,1.36,3.28,1.71-.32.6-6.58,2.12-7,.57-.17,1.13.68,1.9.36s.66-1,1.42-1.23C211.87,150,212.12,150.17,212.31,150Z"/><path class="cls-6" d="M223.83,133l8.57,1.53,6.46-3.34s-.65-4.56-.61-5.84c.09-3,1.56-9.94-.61-14.85-1.6-3.61-4.58-2-8.35-.78l-4.24.47s-6.8-4.11-2.05,14.83A65.57,65.57,0,0,1,223.83,133Z"/><path class="cls-11" d="M227.37,96.61a9.69,9.69,0,0,0-2.34,6.88c.05,2.71,4.22,2.84,6.49,1.4a6.21,6.21,0,0,0,2.83-6.17C233.68,95.87,229.62,94.31,227.37,96.61Z"/><path class="cls-11" d="M226.49,97.84a5.47,5.47,0,0,1-1.89,1.47,2,2,0,0,0,.91,1.12Z"/><path class="cls-6" d="M221.32,111.78l-2.19,8.34-1.36,4.3-8.33,14.65,2.6,1.74,10.52-14.75,1.61-4.59,6.25-12.16c.5-1.43-2.55-1.37-4-1.87S222.35,108.8,221.32,111.78Z"/><path class="cls-11" d="M209.8,138.45s-3.16,3.49-1,3.25c1.51-.16.42-.38.42-.38s-2.15,1.88-1.2,1.85,2.94.81,3.43-.49c.59-1.57.86-2.49.86-2.49Z"/><rect class="cls-6" x="210.45" y="136.64" width="2.01" height="4.49" transform="translate(-22.36 235.48) rotate(-55.74)"/><polygon class="cls-6" points="231.03 101.6 225.37 85.73 228.24 84.47 236.03 100.82 236.83 105.61 231.63 106.08 231.03 101.6"/><path class="cls-6" d="M236,117.14a2.75,2.75,0,0,1-3.15-2.26l-1.18-8.8,5.2-.46,1.65,7.69A3.68,3.68,0,0,1,236,117.14Z"/><path class="cls-11" d="M226.25,86s-3.25-3.44-1.88-4.12l1,1.64s-1.18-4.23-.25-4,2.95,1.38,2.74,2.75c-.25,1.63-.38,3-.38,3Z"/><rect class="cls-6" x="226.14" y="83.88" width="2.01" height="3.91" transform="translate(222.56 -156.94) rotate(68.22)"/><polygon class="cls-11" points="226.72 103.58 227.12 112.51 232 110.95 229.7 102.8 226.72 103.58"/><path class="cls-4" d="M228.29,129a87.86,87.86,0,0,0-1.88-21.6,2.76,2.76,0,0,0-2.2.54A82.85,82.85,0,0,1,226,129Z"/><path class="cls-4" d="M240.27,138.74a21.92,21.92,0,0,0-1.91-13c-5,2.79-14.91,2.15-14.91,2.15L222.05,141l-.78,14.53A80.37,80.37,0,0,0,225,174.46l3.87-.62a98,98,0,0,0-.61-18.61s1.95-7.83,3-11.86c.06-.26,1.21-.68,1.27-.91C232.56,142.46,238.33,142.15,240.27,138.74Z"/><path class="cls-4" d="M233.74,174.34l3.39-.5a59,59,0,0,0,0-18.39,43.13,43.13,0,0,0,2.91-15.35c.09-.46.16-.91.22-1.36-1.94,3.41-7.71,3.72-7.71,3.72l-2.48,13.72S231.1,162.77,233.74,174.34Z"/><path class="cls-14" d="M234.48,142.18a13.14,13.14,0,0,1-1.92.28l-2.48,13.72s1,6.52,3.62,18a2.3,2.3,0,0,0,.88-1c.34-.79-.17-1.3-.81-3.82-.41-1.57-.19-1.34-.82-4.5a36.82,36.82,0,0,0-1-4.22c-.64-1.66-1.29-2.36-1-3.27s1.22-1,1.23-1.77-.63-.9-1-1.5c-.78-1.43.78-3.66,1.23-4.36A14.33,14.33,0,0,0,234.48,142.18Z"/><polygon class="cls-11" points="225.02 174.46 225.75 176.84 228.45 176.63 228.44 173.95 225.02 174.46"/><path class="cls-6" d="M220.85,180.39s0-1.6,3-2.1c1.59-.26.77-1.44.77-1.44l3-.91-2.83,5Z"/><path class="cls-4" d="M228.1,175.91c-2,0-1.86,1.69-2.16,2.77h0a4.93,4.93,0,0,1-4.41,1.79l2.78.38a6.85,6.85,0,0,0,2.74-.17l1.68-.45c1-.54,2-4.22-.47-4.32Z"/><path class="cls-9" d="M221,180.42l.49.05C220.92,180.39,220.62,180.35,221,180.42Z"/><polygon class="cls-11" points="233.74 174.34 234.44 176.73 237.14 176.52 237.13 173.84 233.74 174.34"/><path class="cls-6" d="M229.53,180.28s0-1.6,3-2.1c1.59-.26.78-1.44.78-1.44l3-.91-2.82,5Z"/><path class="cls-4" d="M236.78,175.8c-2,0-1.85,1.69-2.15,2.77h0a5,5,0,0,1-4.42,1.79l2.78.38a6.9,6.9,0,0,0,2.75-.17l1.68-.45c1-.54,2-4.22-.47-4.32Z"/><path class="cls-9" d="M229.72,180.31l.49.05C229.61,180.28,229.31,180.24,229.72,180.31Z"/><rect class="cls-4" x="224.21" y="172.88" width="5.05" height="2.13" transform="translate(-17.5 25.58) rotate(-6.22)"/><rect class="cls-4" x="232.91" y="172.39" width="5.05" height="2.13" transform="translate(-17.4 26.52) rotate(-6.22)"/><path class="cls-2" d="M226.64,106.88l-.08,1.5a6.75,6.75,0,0,0,3.21.32,2.72,2.72,0,0,0,1.66-1.52l-.41-1.11S229.9,107.82,226.64,106.88Z"/><path class="cls-13" d="M227.6,94.5s-2.9,2.61.65,5.29c0,0,1.31,1-.63,3.28a1.28,1.28,0,0,0,0,1.64c1.17,1.38,3.75,3.41,6.5-.87,1.27-2,1.44-4.31.38-5.68A6.89,6.89,0,0,0,231,95.55C229.56,95.06,228.81,95.23,227.6,94.5Z"/><path class="cls-13" d="M227.61,103.07a9.66,9.66,0,0,0-3.21,7.64c0,3.26,3.3,5.88,3.37,6.64.2,2.1-3.17,6.52-2.68,8.71.69,3.17,6.33,4.32,11.86,2,6.32-2.63,7.13-11,1.49-16.82-2.5-2.56-1.68-7.57-2.16-11.23-.28-2.2-.93.13-2-1.5-1.59-2.44-5.51-3.28-6.12-2.53s1.93,2.51,1.38,4.64C229.26,101.69,228.92,101.93,227.61,103.07Z"/><path class="cls-11" d="M229.3,100.61a1.13,1.13,0,1,1-1.4-.29A1,1,0,0,1,229.3,100.61Z"/><path class="cls-6" d="M236,101.6,227.65,95A5.3,5.3,0,0,1,236,101.6"/><path class="cls-9" d="M233.31,93.23a5.16,5.16,0,0,1,1.78.93,5.3,5.3,0,0,1,.88,7.44l-2.17-1.71A5.31,5.31,0,0,0,233.31,93.23Z"/><rect class="cls-9" x="230.37" y="91.63" width="1.51" height="12.29" transform="translate(14.55 224.56) rotate(-53.27)"/></g></g></svg>